<svg xmlns="http://www.w3.org/2000/svg" xmlns:xlink="http://www.w3.org/1999/xlink" width="1080" zoomAndPan="magnify" viewBox="0 0 810 809.999993" height="1080" preserveAspectRatio="xMidYMid meet" version="1.2"><defs><clipPath id="7f07a37a84"><path d="M 75 0 L 735 0 C 776.421875 0 810 33.578125 810 75 L 810 735 C 810 776.421875 776.421875 810 735 810 L 75 810 C 33.578125 810 0 776.421875 0 735 L 0 75 C 0 33.578125 33.578125 0 75 0 Z M 75 0 "/></clipPath><clipPath id="779a3f10ec"><path d="M 75 0 L 735 0 C 776.421875 0 810 33.578125 810 75 L 810 735 C 810 776.421875 776.421875 810 735 810 L 75 810 C 33.578125 810 0 776.421875 0 735 L 0 75 C 0 33.578125 33.578125 0 75 0 Z M 75 0 "/></clipPath><linearGradient x1="128" gradientTransform="matrix(3.164062,0,0,3.164062,0.0000035,0.00002)" y1="0" x2="128" gradientUnits="userSpaceOnUse" y2="255.999999" id="9eaa4c8920"><stop style="stop-color:#888888;stop-opacity:1;" offset="0"/><stop style="stop-color:#878787;stop-opacity:1;" offset="0.00390625"/><stop style="stop-color:#878787;stop-opacity:1;" offset="0.0078125"/><stop style="stop-color:#868686;stop-opacity:1;" offset="0.0117188"/><stop style="stop-color:#868686;stop-opacity:1;" offset="0.015625"/><stop style="stop-color:#858585;stop-opacity:1;" offset="0.0195312"/><stop style="stop-color:#858585;stop-opacity:1;" offset="0.0234375"/><stop style="stop-color:#848484;stop-opacity:1;" offset="0.0273438"/><stop style="stop-color:#848484;stop-opacity:1;" offset="0.03125"/><stop style="stop-color:#838383;stop-opacity:1;" offset="0.0351562"/><stop style="stop-color:#838383;stop-opacity:1;" offset="0.0390625"/><stop style="stop-color:#828282;stop-opacity:1;" offset="0.0429688"/><stop style="stop-color:#828282;stop-opacity:1;" offset="0.046875"/><stop style="stop-color:#818181;stop-opacity:1;" offset="0.0507812"/><stop style="stop-color:#818181;stop-opacity:1;" offset="0.0546875"/><stop style="stop-color:#808080;stop-opacity:1;" offset="0.0585937"/><stop style="stop-color:#7f7f7f;stop-opacity:1;" offset="0.0625"/><stop style="stop-color:#7f7f7f;stop-opacity:1;" offset="0.0664062"/><stop style="stop-color:#7e7e7e;stop-opacity:1;" offset="0.0703125"/><stop style="stop-color:#7e7e7e;stop-opacity:1;" offset="0.0742188"/><stop style="stop-color:#7d7d7d;stop-opacity:1;" offset="0.078125"/><stop style="stop-color:#7d7d7d;stop-opacity:1;" offset="0.0820313"/><stop style="stop-color:#7c7c7c;stop-opacity:1;" offset="0.0859375"/><stop style="stop-color:#7c7c7c;stop-opacity:1;" offset="0.0898438"/><stop style="stop-color:#7b7b7b;stop-opacity:1;" offset="0.09375"/><stop style="stop-color:#7b7b7b;stop-opacity:1;" offset="0.0976562"/><stop style="stop-color:#7a7a7a;stop-opacity:1;" offset="0.101562"/><stop style="stop-color:#7a7a7a;stop-opacity:1;" offset="0.105469"/><stop style="stop-color:#797979;stop-opacity:1;" offset="0.109375"/><stop style="stop-color:#797979;stop-opacity:1;" offset="0.113281"/><stop style="stop-color:#787878;stop-opacity:1;" offset="0.117187"/><stop style="stop-color:#787878;stop-opacity:1;" offset="0.121094"/><stop style="stop-color:#777777;stop-opacity:1;" offset="0.125"/><stop style="stop-color:#767676;stop-opacity:1;" offset="0.128906"/><stop style="stop-color:#767676;stop-opacity:1;" offset="0.132812"/><stop style="stop-color:#757575;stop-opacity:1;" offset="0.136719"/><stop style="stop-color:#757575;stop-opacity:1;" offset="0.140625"/><stop style="stop-color:#747474;stop-opacity:1;" offset="0.144531"/><stop style="stop-color:#747474;stop-opacity:1;" offset="0.148438"/><stop style="stop-color:#737373;stop-opacity:1;" offset="0.152344"/><stop style="stop-color:#737373;stop-opacity:1;" offset="0.15625"/><stop style="stop-color:#727272;stop-opacity:1;" offset="0.160156"/><stop style="stop-color:#727272;stop-opacity:1;" offset="0.164063"/><stop style="stop-color:#717171;stop-opacity:1;" offset="0.167969"/><stop style="stop-color:#717171;stop-opacity:1;" offset="0.171875"/><stop style="stop-color:#707070;stop-opacity:1;" offset="0.175781"/><stop style="stop-color:#707070;stop-opacity:1;" offset="0.179688"/><stop style="stop-color:#6f6f6f;stop-opacity:1;" offset="0.183594"/><stop style="stop-color:#6e6e6e;stop-opacity:1;" offset="0.1875"/><stop style="stop-color:#6e6e6e;stop-opacity:1;" offset="0.191406"/><stop style="stop-color:#6d6d6d;stop-opacity:1;" offset="0.195312"/><stop style="stop-color:#6d6d6d;stop-opacity:1;" offset="0.199219"/><stop style="stop-color:#6c6c6c;stop-opacity:1;" offset="0.203125"/><stop style="stop-color:#6c6c6c;stop-opacity:1;" offset="0.207031"/><stop style="stop-color:#6b6b6b;stop-opacity:1;" offset="0.210938"/><stop style="stop-color:#6b6b6b;stop-opacity:1;" offset="0.214844"/><stop style="stop-color:#6a6a6a;stop-opacity:1;" offset="0.21875"/><stop style="stop-color:#6a6a6a;stop-opacity:1;" offset="0.222656"/><stop style="stop-color:#696969;stop-opacity:1;" offset="0.226562"/><stop style="stop-color:#696969;stop-opacity:1;" offset="0.230469"/><stop style="stop-color:#686868;stop-opacity:1;" offset="0.234375"/><stop style="stop-color:#686868;stop-opacity:1;" offset="0.238281"/><stop style="stop-color:#676767;stop-opacity:1;" offset="0.242187"/><stop style="stop-color:#676767;stop-opacity:1;" offset="0.246094"/><stop style="stop-color:#666666;stop-opacity:1;" offset="0.25"/><stop style="stop-color:#656565;stop-opacity:1;" offset="0.253906"/><stop style="stop-color:#656565;stop-opacity:1;" offset="0.257812"/><stop style="stop-color:#646464;stop-opacity:1;" offset="0.261719"/><stop style="stop-color:#646464;stop-opacity:1;" offset="0.265625"/><stop style="stop-color:#636363;stop-opacity:1;" offset="0.269531"/><stop style="stop-color:#636363;stop-opacity:1;" offset="0.273438"/><stop style="stop-color:#626262;stop-opacity:1;" offset="0.277344"/><stop style="stop-color:#626262;stop-opacity:1;" offset="0.28125"/><stop style="stop-color:#616161;stop-opacity:1;" offset="0.285156"/><stop style="stop-color:#616161;stop-opacity:1;" offset="0.289062"/><stop style="stop-color:#606060;stop-opacity:1;" offset="0.292969"/><stop style="stop-color:#606060;stop-opacity:1;" offset="0.296875"/><stop style="stop-color:#5f5f5f;stop-opacity:1;" offset="0.300781"/><stop style="stop-color:#5f5f5f;stop-opacity:1;" offset="0.304688"/><stop style="stop-color:#5e5e5e;stop-opacity:1;" offset="0.308594"/><stop style="stop-color:#5d5d5d;stop-opacity:1;" offset="0.3125"/><stop style="stop-color:#5d5d5d;stop-opacity:1;" offset="0.316406"/><stop style="stop-color:#5c5c5c;stop-opacity:1;" offset="0.320313"/><stop style="stop-color:#5c5c5c;stop-opacity:1;" offset="0.324219"/><stop style="stop-color:#5b5b5b;stop-opacity:1;" offset="0.328125"/><stop style="stop-color:#5b5b5b;stop-opacity:1;" offset="0.332031"/><stop style="stop-color:#5a5a5a;stop-opacity:1;" offset="0.335938"/><stop style="stop-color:#5a5a5a;stop-opacity:1;" offset="0.339844"/><stop style="stop-color:#595959;stop-opacity:1;" offset="0.34375"/><stop style="stop-color:#595959;stop-opacity:1;" offset="0.347656"/><stop style="stop-color:#585858;stop-opacity:1;" offset="0.351562"/><stop style="stop-color:#585858;stop-opacity:1;" offset="0.355469"/><stop style="stop-color:#575757;stop-opacity:1;" offset="0.359375"/><stop style="stop-color:#575757;stop-opacity:1;" offset="0.363281"/><stop style="stop-color:#565656;stop-opacity:1;" offset="0.367188"/><stop style="stop-color:#565656;stop-opacity:1;" offset="0.371094"/><stop style="stop-color:#555555;stop-opacity:1;" offset="0.375"/><stop style="stop-color:#545454;stop-opacity:1;" offset="0.378906"/><stop style="stop-color:#545454;stop-opacity:1;" offset="0.382812"/><stop style="stop-color:#535353;stop-opacity:1;" offset="0.386719"/><stop style="stop-color:#535353;stop-opacity:1;" offset="0.390625"/><stop style="stop-color:#525252;stop-opacity:1;" offset="0.394531"/><stop style="stop-color:#525252;stop-opacity:1;" offset="0.398438"/><stop style="stop-color:#515151;stop-opacity:1;" offset="0.402344"/><stop style="stop-color:#515151;stop-opacity:1;" offset="0.40625"/><stop style="stop-color:#505050;stop-opacity:1;" offset="0.410156"/><stop style="stop-color:#505050;stop-opacity:1;" offset="0.414062"/><stop style="stop-color:#4f4f4f;stop-opacity:1;" offset="0.417969"/><stop style="stop-color:#4f4f4f;stop-opacity:1;" offset="0.421875"/><stop style="stop-color:#4e4e4e;stop-opacity:1;" offset="0.425781"/><stop style="stop-color:#4e4e4e;stop-opacity:1;" offset="0.429688"/><stop style="stop-color:#4d4d4d;stop-opacity:1;" offset="0.433594"/><stop style="stop-color:#4c4c4c;stop-opacity:1;" offset="0.4375"/><stop style="stop-color:#4c4c4c;stop-opacity:1;" offset="0.441406"/><stop style="stop-color:#4b4b4b;stop-opacity:1;" offset="0.445312"/><stop style="stop-color:#4b4b4b;stop-opacity:1;" offset="0.449219"/><stop style="stop-color:#4a4a4a;stop-opacity:1;" offset="0.453125"/><stop style="stop-color:#4a4a4a;stop-opacity:1;" offset="0.457031"/><stop style="stop-color:#494949;stop-opacity:1;" offset="0.460937"/><stop style="stop-color:#494949;stop-opacity:1;" offset="0.464844"/><stop style="stop-color:#484848;stop-opacity:1;" offset="0.46875"/><stop style="stop-color:#484848;stop-opacity:1;" offset="0.472656"/><stop style="stop-color:#474747;stop-opacity:1;" offset="0.476562"/><stop style="stop-color:#474747;stop-opacity:1;" offset="0.480469"/><stop style="stop-color:#464646;stop-opacity:1;" offset="0.484375"/><stop style="stop-color:#464646;stop-opacity:1;" offset="0.488281"/><stop style="stop-color:#454545;stop-opacity:1;" offset="0.492187"/><stop style="stop-color:#454545;stop-opacity:1;" offset="0.496094"/><stop style="stop-color:#444444;stop-opacity:1;" offset="0.5"/><stop style="stop-color:#434343;stop-opacity:1;" offset="0.503906"/><stop style="stop-color:#434343;stop-opacity:1;" offset="0.507812"/><stop style="stop-color:#424242;stop-opacity:1;" offset="0.511719"/><stop style="stop-color:#424242;stop-opacity:1;" offset="0.515625"/><stop style="stop-color:#414141;stop-opacity:1;" offset="0.519531"/><stop style="stop-color:#414141;stop-opacity:1;" offset="0.523438"/><stop style="stop-color:#404040;stop-opacity:1;" offset="0.527344"/><stop style="stop-color:#404040;stop-opacity:1;" offset="0.53125"/><stop style="stop-color:#3f3f3f;stop-opacity:1;" offset="0.535156"/><stop style="stop-color:#3f3f3f;stop-opacity:1;" offset="0.539062"/><stop style="stop-color:#3e3e3e;stop-opacity:1;" offset="0.542969"/><stop style="stop-color:#3e3e3e;stop-opacity:1;" offset="0.546875"/><stop style="stop-color:#3d3d3d;stop-opacity:1;" offset="0.550781"/><stop style="stop-color:#3d3d3d;stop-opacity:1;" offset="0.554688"/><stop style="stop-color:#3c3c3c;stop-opacity:1;" offset="0.558594"/><stop style="stop-color:#3b3b3b;stop-opacity:1;" offset="0.5625"/><stop style="stop-color:#3b3b3b;stop-opacity:1;" offset="0.566406"/><stop style="stop-color:#3a3a3a;stop-opacity:1;" offset="0.570312"/><stop style="stop-color:#3a3a3a;stop-opacity:1;" offset="0.574219"/><stop style="stop-color:#393939;stop-opacity:1;" offset="0.578125"/><stop style="stop-color:#393939;stop-opacity:1;" offset="0.582031"/><stop style="stop-color:#383838;stop-opacity:1;" offset="0.585938"/><stop style="stop-color:#383838;stop-opacity:1;" offset="0.589844"/><stop style="stop-color:#373737;stop-opacity:1;" offset="0.59375"/><stop style="stop-color:#373737;stop-opacity:1;" offset="0.597656"/><stop style="stop-color:#363636;stop-opacity:1;" offset="0.601562"/><stop style="stop-color:#363636;stop-opacity:1;" offset="0.605469"/><stop style="stop-color:#353535;stop-opacity:1;" offset="0.609375"/><stop style="stop-color:#353535;stop-opacity:1;" offset="0.613281"/><stop style="stop-color:#343434;stop-opacity:1;" offset="0.617188"/><stop style="stop-color:#343434;stop-opacity:1;" offset="0.621094"/><stop style="stop-color:#333333;stop-opacity:1;" offset="0.625"/><stop style="stop-color:#323232;stop-opacity:1;" offset="0.628906"/><stop style="stop-color:#323232;stop-opacity:1;" offset="0.632813"/><stop style="stop-color:#313131;stop-opacity:1;" offset="0.636719"/><stop style="stop-color:#313131;stop-opacity:1;" offset="0.640625"/><stop style="stop-color:#303030;stop-opacity:1;" offset="0.644531"/><stop style="stop-color:#303030;stop-opacity:1;" offset="0.648438"/><stop style="stop-color:#2f2f2f;stop-opacity:1;" offset="0.652344"/><stop style="stop-color:#2f2f2f;stop-opacity:1;" offset="0.65625"/><stop style="stop-color:#2e2e2e;stop-opacity:1;" offset="0.660156"/><stop style="stop-color:#2e2e2e;stop-opacity:1;" offset="0.664063"/><stop style="stop-color:#2d2d2d;stop-opacity:1;" offset="0.667969"/><stop style="stop-color:#2d2d2d;stop-opacity:1;" offset="0.671875"/><stop style="stop-color:#2c2c2c;stop-opacity:1;" offset="0.675781"/><stop style="stop-color:#2c2c2c;stop-opacity:1;" offset="0.679688"/><stop style="stop-color:#2b2b2b;stop-opacity:1;" offset="0.683594"/><stop style="stop-color:#2a2a2a;stop-opacity:1;" offset="0.6875"/><stop style="stop-color:#2a2a2a;stop-opacity:1;" offset="0.691406"/><stop style="stop-color:#292929;stop-opacity:1;" offset="0.695313"/><stop style="stop-color:#292929;stop-opacity:1;" offset="0.699219"/><stop style="stop-color:#282828;stop-opacity:1;" offset="0.703125"/><stop style="stop-color:#282828;stop-opacity:1;" offset="0.707031"/><stop style="stop-color:#272727;stop-opacity:1;" offset="0.710938"/><stop style="stop-color:#272727;stop-opacity:1;" offset="0.714844"/><stop style="stop-color:#262626;stop-opacity:1;" offset="0.71875"/><stop style="stop-color:#262626;stop-opacity:1;" offset="0.722656"/><stop style="stop-color:#252525;stop-opacity:1;" offset="0.726562"/><stop style="stop-color:#252525;stop-opacity:1;" offset="0.730469"/><stop style="stop-color:#242424;stop-opacity:1;" offset="0.734375"/><stop style="stop-color:#242424;stop-opacity:1;" offset="0.738281"/><stop style="stop-color:#232323;stop-opacity:1;" offset="0.742188"/><stop style="stop-color:#232323;stop-opacity:1;" offset="0.746094"/><stop style="stop-color:#222222;stop-opacity:1;" offset="0.75"/><stop style="stop-color:#212121;stop-opacity:1;" offset="0.753906"/><stop style="stop-color:#212121;stop-opacity:1;" offset="0.757812"/><stop style="stop-color:#202020;stop-opacity:1;" offset="0.761719"/><stop style="stop-color:#202020;stop-opacity:1;" offset="0.765625"/><stop style="stop-color:#1f1f1f;stop-opacity:1;" offset="0.769531"/><stop style="stop-color:#1f1f1f;stop-opacity:1;" offset="0.773438"/><stop style="stop-color:#1e1e1e;stop-opacity:1;" offset="0.777344"/><stop style="stop-color:#1e1e1e;stop-opacity:1;" offset="0.78125"/><stop style="stop-color:#1d1d1d;stop-opacity:1;" offset="0.785156"/><stop style="stop-color:#1d1d1d;stop-opacity:1;" offset="0.789062"/><stop style="stop-color:#1c1c1c;stop-opacity:1;" offset="0.792969"/><stop style="stop-color:#1c1c1c;stop-opacity:1;" offset="0.796875"/><stop style="stop-color:#1b1b1b;stop-opacity:1;" offset="0.800781"/><stop style="stop-color:#1b1b1b;stop-opacity:1;" offset="0.804688"/><stop style="stop-color:#1a1a1a;stop-opacity:1;" offset="0.808594"/><stop style="stop-color:#191919;stop-opacity:1;" offset="0.8125"/><stop style="stop-color:#191919;stop-opacity:1;" offset="0.816406"/><stop style="stop-color:#181818;stop-opacity:1;" offset="0.820312"/><stop style="stop-color:#181818;stop-opacity:1;" offset="0.824219"/><stop style="stop-color:#171717;stop-opacity:1;" offset="0.828125"/><stop style="stop-color:#171717;stop-opacity:1;" offset="0.832031"/><stop style="stop-color:#161616;stop-opacity:1;" offset="0.835938"/><stop style="stop-color:#161616;stop-opacity:1;" offset="0.839844"/><stop style="stop-color:#151515;stop-opacity:1;" offset="0.84375"/><stop style="stop-color:#151515;stop-opacity:1;" offset="0.847656"/><stop style="stop-color:#141414;stop-opacity:1;" offset="0.851562"/><stop style="stop-color:#141414;stop-opacity:1;" offset="0.855469"/><stop style="stop-color:#131313;stop-opacity:1;" offset="0.859375"/><stop style="stop-color:#131313;stop-opacity:1;" offset="0.863281"/><stop style="stop-color:#121212;stop-opacity:1;" offset="0.867188"/><stop style="stop-color:#121212;stop-opacity:1;" offset="0.871094"/><stop style="stop-color:#111111;stop-opacity:1;" offset="0.875"/><stop style="stop-color:#101010;stop-opacity:1;" offset="0.878906"/><stop style="stop-color:#101010;stop-opacity:1;" offset="0.882812"/><stop style="stop-color:#0f0f0f;stop-opacity:1;" offset="0.886719"/><stop style="stop-color:#0f0f0f;stop-opacity:1;" offset="0.890625"/><stop style="stop-color:#0e0e0e;stop-opacity:1;" offset="0.894531"/><stop style="stop-color:#0e0e0e;stop-opacity:1;" offset="0.898438"/><stop style="stop-color:#0d0d0d;stop-opacity:1;" offset="0.902344"/><stop style="stop-color:#0d0d0d;stop-opacity:1;" offset="0.90625"/><stop style="stop-color:#0c0c0c;stop-opacity:1;" offset="0.910156"/><stop style="stop-color:#0c0c0c;stop-opacity:1;" offset="0.914062"/><stop style="stop-color:#0b0b0b;stop-opacity:1;" offset="0.917969"/><stop style="stop-color:#0b0b0b;stop-opacity:1;" offset="0.921875"/><stop style="stop-color:#0a0a0a;stop-opacity:1;" offset="0.925781"/><stop style="stop-color:#0a0a0a;stop-opacity:1;" offset="0.929687"/><stop style="stop-color:#090909;stop-opacity:1;" offset="0.933594"/><stop style="stop-color:#080808;stop-opacity:1;" offset="0.9375"/><stop style="stop-color:#080808;stop-opacity:1;" offset="0.941406"/><stop style="stop-color:#070707;stop-opacity:1;" offset="0.945312"/><stop style="stop-color:#070707;stop-opacity:1;" offset="0.949219"/><stop style="stop-color:#060606;stop-opacity:1;" offset="0.953125"/><stop style="stop-color:#060606;stop-opacity:1;" offset="0.957031"/><stop style="stop-color:#050505;stop-opacity:1;" offset="0.960937"/><stop style="stop-color:#050505;stop-opacity:1;" offset="0.964844"/><stop style="stop-color:#040404;stop-opacity:1;" offset="0.96875"/><stop style="stop-color:#040404;stop-opacity:1;" offset="0.972656"/><stop style="stop-color:#030303;stop-opacity:1;" offset="0.976562"/><stop style="stop-color:#030303;stop-opacity:1;" offset="0.980469"/><stop style="stop-color:#020202;stop-opacity:1;" offset="0.984375"/><stop style="stop-color:#020202;stop-opacity:1;" offset="0.988281"/><stop style="stop-color:#010101;stop-opacity:1;" offset="0.992187"/><stop style="stop-color:#010101;stop-opacity:1;" offset="0.996094"/><stop style="stop-color:#000000;stop-opacity:1;" offset="1"/></linearGradient><clipPath id="ea8c7e9044"><rect x="0" width="810" y="0" height="810"/></clipPath><clipPath id="f2a49f6330"><path d="M 172.90625 216.078125 L 810 216.078125 L 810 729 L 172.90625 729 Z M 172.90625 216.078125 "/></clipPath><clipPath id="314f148603"><path d="M 211.15625 216.078125 L 881.886719 216.078125 C 892.03125 216.078125 901.757812 220.109375 908.933594 227.28125 C 916.105469 234.453125 920.136719 244.183594 920.136719 254.328125 L 920.136719 690.75 C 920.136719 700.894531 916.105469 710.625 908.933594 717.796875 C 901.757812 724.96875 892.03125 729 881.886719 729 L 211.15625 729 C 201.011719 729 191.285156 724.96875 184.109375 717.796875 C 176.9375 710.625 172.90625 700.894531 172.90625 690.75 L 172.90625 254.328125 C 172.90625 244.183594 176.9375 234.453125 184.109375 227.28125 C 191.285156 220.109375 201.011719 216.078125 211.15625 216.078125 Z M 211.15625 216.078125 "/></clipPath><clipPath id="4a96abccc9"><path d="M 0.90625 0.078125 L 638 0.078125 L 638 513 L 0.90625 513 Z M 0.90625 0.078125 "/></clipPath><clipPath id="9e0140ccab"><path d="M 39.15625 0.078125 L 709.886719 0.078125 C 720.03125 0.078125 729.757812 4.109375 736.933594 11.28125 C 744.105469 18.453125 748.136719 28.183594 748.136719 38.328125 L 748.136719 474.75 C 748.136719 484.894531 744.105469 494.625 736.933594 501.796875 C 729.757812 508.96875 720.03125 513 709.886719 513 L 39.15625 513 C 29.011719 513 19.285156 508.96875 12.109375 501.796875 C 4.9375 494.625 0.90625 484.894531 0.90625 474.75 L 0.90625 38.328125 C 0.90625 28.183594 4.9375 18.453125 12.109375 11.28125 C 19.285156 4.109375 29.011719 0.078125 39.15625 0.078125 Z M 39.15625 0.078125 "/></clipPath><clipPath id="f3e99928b8"><rect x="0" width="638" y="0" height="513"/></clipPath></defs><g id="ba34459429"><g clip-rule="nonzero" clip-path="url(#7f07a37a84)"><g transform="matrix(1,0,0,1,0,0.000000000000039746)"><g clip-path="url(#ea8c7e9044)"><g clip-rule="nonzero" clip-path="url(#779a3f10ec)"><rect x="0" width="810" height="810" y="0" style="fill:url(#9eaa4c8920);stroke:none;"/></g></g></g></g><g clip-rule="nonzero" clip-path="url(#f2a49f6330)"><g clip-rule="nonzero" clip-path="url(#314f148603)"><g transform="matrix(1,0,0,1,172,216)"><g clip-path="url(#f3e99928b8)"><g clip-rule="nonzero" clip-path="url(#4a96abccc9)"><g clip-rule="nonzero" clip-path="url(#9e0140ccab)"><path style=" stroke:none;fill-rule:nonzero;fill:#ffffff;fill-opacity:1;" d="M 0.90625 0.078125 L 748.25 0.078125 L 748.25 513 L 0.90625 513 Z M 0.90625 0.078125 "/></g></g></g></g></g></g><g style="fill:#000000;fill-opacity:1;"><g transform="translate(177.09058, 574.816222)"><path style="stroke:none" d="M 51.109375 4.421875 C 42.898438 4.421875 36.0625 1.476562 30.59375 -4.40625 C 25.125 -10.300781 22.390625 -17.457031 22.390625 -25.875 C 22.390625 -34.488281 25.125 -41.6875 30.59375 -47.46875 C 36.0625 -53.257812 42.898438 -56.15625 51.109375 -56.15625 C 59.515625 -56.15625 66.453125 -53.257812 71.921875 -47.46875 C 77.390625 -41.6875 80.125 -34.488281 80.125 -25.875 C 80.125 -17.457031 77.390625 -10.300781 71.921875 -4.40625 C 66.453125 1.476562 59.515625 4.421875 51.109375 4.421875 Z M 51.109375 4.421875 "/></g></g><g style="fill:#000000;fill-opacity:1;"><g transform="translate(275.830909, 574.816222)"><path style="stroke:none" d="M 101.578125 4.421875 C 85.171875 4.421875 70.34375 0.738281 57.09375 -6.625 C 43.84375 -13.988281 33.328125 -24.554688 25.546875 -38.328125 C 17.765625 -52.109375 13.875 -68.671875 13.875 -88.015625 C 13.875 -107.148438 17.816406 -123.65625 25.703125 -137.53125 C 33.597656 -151.414062 43.800781 -162.144531 56.3125 -169.71875 C 68.820312 -177.289062 82.125 -181.078125 96.21875 -181.078125 C 112.414062 -181.078125 125.976562 -177.445312 136.90625 -170.1875 C 147.84375 -162.9375 156.097656 -152.945312 161.671875 -140.21875 C 167.242188 -127.5 170.03125 -112.9375 170.03125 -96.53125 C 170.03125 -87.28125 169.296875 -80.234375 167.828125 -75.390625 L 59 -75.390625 C 60.882812 -60.878906 66.242188 -49.890625 75.078125 -42.421875 C 83.910156 -34.960938 94.847656 -31.234375 107.890625 -31.234375 C 115.253906 -31.234375 122.140625 -32.285156 128.546875 -34.390625 C 134.960938 -36.492188 141.328125 -39.539062 147.640625 -43.53125 L 163.40625 -15.140625 C 154.789062 -9.253906 145.117188 -4.519531 134.390625 -0.9375 C 123.660156 2.632812 112.722656 4.421875 101.578125 4.421875 Z M 58.359375 -106 L 130.28125 -106 C 130.28125 -117.988281 127.546875 -127.503906 122.078125 -134.546875 C 116.617188 -141.585938 108.207031 -145.109375 96.84375 -145.109375 C 87.59375 -145.109375 79.285156 -141.847656 71.921875 -135.328125 C 64.566406 -128.816406 60.046875 -119.039062 58.359375 -106 Z M 58.359375 -106 "/></g></g><g style="fill:#000000;fill-opacity:1;"><g transform="translate(454.06828, 574.816222)"><path style="stroke:none" d="M 5.046875 0 L 60.25 -92.109375 L 8.515625 -176.65625 L 58.359375 -176.65625 L 76.03125 -145.109375 C 81.289062 -135.015625 86.546875 -125.132812 91.796875 -115.46875 L 93.0625 -115.46875 C 95.164062 -120.300781 97.320312 -125.238281 99.53125 -130.28125 C 101.738281 -135.332031 103.894531 -140.273438 106 -145.109375 L 120.828125 -176.65625 L 168.78125 -176.65625 L 117.03125 -86.75 L 172.25 0 L 122.40625 0 L 102.84375 -32.171875 C 100.101562 -37.429688 97.3125 -42.691406 94.46875 -47.953125 C 91.632812 -53.210938 88.75 -58.363281 85.8125 -63.40625 L 84.234375 -63.40625 C 81.703125 -58.363281 79.226562 -53.265625 76.8125 -48.109375 C 74.394531 -42.953125 71.925781 -37.640625 69.40625 -32.171875 L 53 0 Z M 5.046875 0 "/></g></g><g style="fill:#000000;fill-opacity:1;"><g transform="translate(622.526289, 574.816222)"><path style="stroke:none" d="M 101.578125 4.421875 C 85.171875 4.421875 70.34375 0.738281 57.09375 -6.625 C 43.84375 -13.988281 33.328125 -24.554688 25.546875 -38.328125 C 17.765625 -52.109375 13.875 -68.671875 13.875 -88.015625 C 13.875 -107.148438 17.816406 -123.65625 25.703125 -137.53125 C 33.597656 -151.414062 43.800781 -162.144531 56.3125 -169.71875 C 68.820312 -177.289062 82.125 -181.078125 96.21875 -181.078125 C 112.414062 -181.078125 125.976562 -177.445312 136.90625 -170.1875 C 147.84375 -162.9375 156.097656 -152.945312 161.671875 -140.21875 C 167.242188 -127.5 170.03125 -112.9375 170.03125 -96.53125 C 170.03125 -87.28125 169.296875 -80.234375 167.828125 -75.390625 L 59 -75.390625 C 60.882812 -60.878906 66.242188 -49.890625 75.078125 -42.421875 C 83.910156 -34.960938 94.847656 -31.234375 107.890625 -31.234375 C 115.253906 -31.234375 122.140625 -32.285156 128.546875 -34.390625 C 134.960938 -36.492188 141.328125 -39.539062 147.640625 -43.53125 L 163.40625 -15.140625 C 154.789062 -9.253906 145.117188 -4.519531 134.390625 -0.9375 C 123.660156 2.632812 112.722656 4.421875 101.578125 4.421875 Z M 58.359375 -106 L 130.28125 -106 C 130.28125 -117.988281 127.546875 -127.503906 122.078125 -134.546875 C 116.617188 -141.585938 108.207031 -145.109375 96.84375 -145.109375 C 87.59375 -145.109375 79.285156 -141.847656 71.921875 -135.328125 C 64.566406 -128.816406 60.046875 -119.039062 58.359375 -106 Z M 58.359375 -106 "/></g></g></g></svg>