<svg xmlns="http://www.w3.org/2000/svg" xmlns:xlink="http://www.w3.org/1999/xlink" width="1080" zoomAndPan="magnify" viewBox="0 0 810 809.999993" height="1080" preserveAspectRatio="xMidYMid meet" version="1.2"><defs><clipPath id="a57e6e3c4c"><path d="M 75 0 L 735 0 C 776.421875 0 810 33.578125 810 75 L 810 735 C 810 776.421875 776.421875 810 735 810 L 75 810 C 33.578125 810 0 776.421875 0 735 L 0 75 C 0 33.578125 33.578125 0 75 0 Z M 75 0 "/></clipPath><clipPath id="b350da5a7a"><path d="M 75 0 L 735 0 C 776.421875 0 810 33.578125 810 75 L 810 735 C 810 776.421875 776.421875 810 735 810 L 75 810 C 33.578125 810 0 776.421875 0 735 L 0 75 C 0 33.578125 33.578125 0 75 0 Z M 75 0 "/></clipPath><linearGradient x1="0.000000000000053896" gradientTransform="matrix(3.164062,0,0,3.164062,0.0000035,0.00002)" y1="128" x2="255.999999" gradientUnits="userSpaceOnUse" y2="128" id="a910693256"><stop style="stop-color:#f19a5c;stop-opacity:1;" offset="0"/><stop style="stop-color:#f19a5c;stop-opacity:1;" offset="0.0078125"/><stop style="stop-color:#f19b5c;stop-opacity:1;" offset="0.015625"/><stop style="stop-color:#f19b5c;stop-opacity:1;" offset="0.0234375"/><stop style="stop-color:#f19c5d;stop-opacity:1;" offset="0.03125"/><stop style="stop-color:#f19c5d;stop-opacity:1;" offset="0.0390625"/><stop style="stop-color:#f19d5d;stop-opacity:1;" offset="0.046875"/><stop style="stop-color:#f19d5d;stop-opacity:1;" offset="0.0546875"/><stop style="stop-color:#f19e5d;stop-opacity:1;" offset="0.0625"/><stop style="stop-color:#f29e5d;stop-opacity:1;" offset="0.0703125"/><stop style="stop-color:#f29f5d;stop-opacity:1;" offset="0.078125"/><stop style="stop-color:#f29f5e;stop-opacity:1;" offset="0.0859375"/><stop style="stop-color:#f2a05e;stop-opacity:1;" offset="0.09375"/><stop style="stop-color:#f2a05e;stop-opacity:1;" offset="0.101563"/><stop style="stop-color:#f2a15e;stop-opacity:1;" offset="0.109375"/><stop style="stop-color:#f2a15e;stop-opacity:1;" offset="0.117188"/><stop style="stop-color:#f2a25e;stop-opacity:1;" offset="0.125"/><stop style="stop-color:#f2a25e;stop-opacity:1;" offset="0.132812"/><stop style="stop-color:#f2a35f;stop-opacity:1;" offset="0.140625"/><stop style="stop-color:#f2a35f;stop-opacity:1;" offset="0.148438"/><stop style="stop-color:#f2a45f;stop-opacity:1;" offset="0.15625"/><stop style="stop-color:#f2a45f;stop-opacity:1;" offset="0.164062"/><stop style="stop-color:#f2a55f;stop-opacity:1;" offset="0.171875"/><stop style="stop-color:#f2a55f;stop-opacity:1;" offset="0.179688"/><stop style="stop-color:#f2a65f;stop-opacity:1;" offset="0.1875"/><stop style="stop-color:#f3a660;stop-opacity:1;" offset="0.195312"/><stop style="stop-color:#f3a760;stop-opacity:1;" offset="0.203125"/><stop style="stop-color:#f3a760;stop-opacity:1;" offset="0.210937"/><stop style="stop-color:#f3a860;stop-opacity:1;" offset="0.21875"/><stop style="stop-color:#f3a860;stop-opacity:1;" offset="0.226562"/><stop style="stop-color:#f3a960;stop-opacity:1;" offset="0.234375"/><stop style="stop-color:#f3a961;stop-opacity:1;" offset="0.242187"/><stop style="stop-color:#f3aa61;stop-opacity:1;" offset="0.25"/><stop style="stop-color:#f3aa61;stop-opacity:1;" offset="0.257812"/><stop style="stop-color:#f3ab61;stop-opacity:1;" offset="0.265625"/><stop style="stop-color:#f3ac61;stop-opacity:1;" offset="0.273438"/><stop style="stop-color:#f3ac61;stop-opacity:1;" offset="0.28125"/><stop style="stop-color:#f3ad61;stop-opacity:1;" offset="0.289062"/><stop style="stop-color:#f3ad62;stop-opacity:1;" offset="0.296875"/><stop style="stop-color:#f3ae62;stop-opacity:1;" offset="0.304688"/><stop style="stop-color:#f3ae62;stop-opacity:1;" offset="0.3125"/><stop style="stop-color:#f4af62;stop-opacity:1;" offset="0.320312"/><stop style="stop-color:#f4af62;stop-opacity:1;" offset="0.328125"/><stop style="stop-color:#f4b062;stop-opacity:1;" offset="0.335938"/><stop style="stop-color:#f4b062;stop-opacity:1;" offset="0.34375"/><stop style="stop-color:#f4b163;stop-opacity:1;" offset="0.351562"/><stop style="stop-color:#f4b163;stop-opacity:1;" offset="0.359375"/><stop style="stop-color:#f4b263;stop-opacity:1;" offset="0.367188"/><stop style="stop-color:#f4b263;stop-opacity:1;" offset="0.375"/><stop style="stop-color:#f4b363;stop-opacity:1;" offset="0.382812"/><stop style="stop-color:#f4b363;stop-opacity:1;" offset="0.390625"/><stop style="stop-color:#f4b463;stop-opacity:1;" offset="0.398438"/><stop style="stop-color:#f4b464;stop-opacity:1;" offset="0.40625"/><stop style="stop-color:#f4b564;stop-opacity:1;" offset="0.414062"/><stop style="stop-color:#f4b564;stop-opacity:1;" offset="0.421875"/><stop style="stop-color:#f4b664;stop-opacity:1;" offset="0.429687"/><stop style="stop-color:#f4b664;stop-opacity:1;" offset="0.4375"/><stop style="stop-color:#f5b764;stop-opacity:1;" offset="0.445312"/><stop style="stop-color:#f5b765;stop-opacity:1;" offset="0.453125"/><stop style="stop-color:#f5b865;stop-opacity:1;" offset="0.460937"/><stop style="stop-color:#f5b865;stop-opacity:1;" offset="0.46875"/><stop style="stop-color:#f5b965;stop-opacity:1;" offset="0.476562"/><stop style="stop-color:#f5b965;stop-opacity:1;" offset="0.484375"/><stop style="stop-color:#f5ba65;stop-opacity:1;" offset="0.492187"/><stop style="stop-color:#f5ba65;stop-opacity:1;" offset="0.5"/><stop style="stop-color:#f5bb66;stop-opacity:1;" offset="0.507812"/><stop style="stop-color:#f5bb66;stop-opacity:1;" offset="0.515625"/><stop style="stop-color:#f5bc66;stop-opacity:1;" offset="0.523438"/><stop style="stop-color:#f5bc66;stop-opacity:1;" offset="0.53125"/><stop style="stop-color:#f5bd66;stop-opacity:1;" offset="0.539062"/><stop style="stop-color:#f5bd66;stop-opacity:1;" offset="0.546875"/><stop style="stop-color:#f5be66;stop-opacity:1;" offset="0.554688"/><stop style="stop-color:#f5be67;stop-opacity:1;" offset="0.5625"/><stop style="stop-color:#f6bf67;stop-opacity:1;" offset="0.570312"/><stop style="stop-color:#f6bf67;stop-opacity:1;" offset="0.578125"/><stop style="stop-color:#f6c067;stop-opacity:1;" offset="0.585938"/><stop style="stop-color:#f6c067;stop-opacity:1;" offset="0.59375"/><stop style="stop-color:#f6c167;stop-opacity:1;" offset="0.601562"/><stop style="stop-color:#f6c168;stop-opacity:1;" offset="0.609375"/><stop style="stop-color:#f6c268;stop-opacity:1;" offset="0.617188"/><stop style="stop-color:#f6c268;stop-opacity:1;" offset="0.625"/><stop style="stop-color:#f6c368;stop-opacity:1;" offset="0.632812"/><stop style="stop-color:#f6c368;stop-opacity:1;" offset="0.640625"/><stop style="stop-color:#f6c468;stop-opacity:1;" offset="0.648438"/><stop style="stop-color:#f6c468;stop-opacity:1;" offset="0.65625"/><stop style="stop-color:#f6c569;stop-opacity:1;" offset="0.664062"/><stop style="stop-color:#f6c569;stop-opacity:1;" offset="0.671875"/><stop style="stop-color:#f6c669;stop-opacity:1;" offset="0.679688"/><stop style="stop-color:#f6c669;stop-opacity:1;" offset="0.6875"/><stop style="stop-color:#f7c769;stop-opacity:1;" offset="0.695312"/><stop style="stop-color:#f7c769;stop-opacity:1;" offset="0.703125"/><stop style="stop-color:#f7c869;stop-opacity:1;" offset="0.710938"/><stop style="stop-color:#f7c86a;stop-opacity:1;" offset="0.71875"/><stop style="stop-color:#f7c96a;stop-opacity:1;" offset="0.726562"/><stop style="stop-color:#f7c96a;stop-opacity:1;" offset="0.734375"/><stop style="stop-color:#f7ca6a;stop-opacity:1;" offset="0.742188"/><stop style="stop-color:#f7ca6a;stop-opacity:1;" offset="0.75"/><stop style="stop-color:#f7cb6a;stop-opacity:1;" offset="0.757812"/><stop style="stop-color:#f7cc6a;stop-opacity:1;" offset="0.765625"/><stop style="stop-color:#f7cc6b;stop-opacity:1;" offset="0.773438"/><stop style="stop-color:#f7cd6b;stop-opacity:1;" offset="0.78125"/><stop style="stop-color:#f7cd6b;stop-opacity:1;" offset="0.789062"/><stop style="stop-color:#f7ce6b;stop-opacity:1;" offset="0.796875"/><stop style="stop-color:#f7ce6b;stop-opacity:1;" offset="0.804688"/><stop style="stop-color:#f7cf6b;stop-opacity:1;" offset="0.8125"/><stop style="stop-color:#f8cf6c;stop-opacity:1;" offset="0.820312"/><stop style="stop-color:#f8d06c;stop-opacity:1;" offset="0.828125"/><stop style="stop-color:#f8d06c;stop-opacity:1;" offset="0.835937"/><stop style="stop-color:#f8d16c;stop-opacity:1;" offset="0.84375"/><stop style="stop-color:#f8d16c;stop-opacity:1;" offset="0.851562"/><stop style="stop-color:#f8d26c;stop-opacity:1;" offset="0.859375"/><stop style="stop-color:#f8d26c;stop-opacity:1;" offset="0.867187"/><stop style="stop-color:#f8d36d;stop-opacity:1;" offset="0.875"/><stop style="stop-color:#f8d36d;stop-opacity:1;" offset="0.882812"/><stop style="stop-color:#f8d46d;stop-opacity:1;" offset="0.890625"/><stop style="stop-color:#f8d46d;stop-opacity:1;" offset="0.898437"/><stop style="stop-color:#f8d56d;stop-opacity:1;" offset="0.90625"/><stop style="stop-color:#f8d56d;stop-opacity:1;" offset="0.914062"/><stop style="stop-color:#f8d66d;stop-opacity:1;" offset="0.921875"/><stop style="stop-color:#f8d66e;stop-opacity:1;" offset="0.929687"/><stop style="stop-color:#f8d76e;stop-opacity:1;" offset="0.9375"/><stop style="stop-color:#f9d76e;stop-opacity:1;" offset="0.945312"/><stop style="stop-color:#f9d86e;stop-opacity:1;" offset="0.953125"/><stop style="stop-color:#f9d86e;stop-opacity:1;" offset="0.960937"/><stop style="stop-color:#f9d96e;stop-opacity:1;" offset="0.96875"/><stop style="stop-color:#f9d96e;stop-opacity:1;" offset="0.976562"/><stop style="stop-color:#f9da6f;stop-opacity:1;" offset="0.984375"/><stop style="stop-color:#f9da6f;stop-opacity:1;" offset="0.992187"/><stop style="stop-color:#f9db6f;stop-opacity:1;" offset="1"/></linearGradient><clipPath id="488b20b34b"><rect x="0" width="810" y="0" height="810"/></clipPath><clipPath id="9df05a4762"><path d="M 172.90625 216.078125 L 810 216.078125 L 810 729 L 172.90625 729 Z M 172.90625 216.078125 "/></clipPath><clipPath id="647dddbc8e"><path d="M 211.15625 216.078125 L 881.886719 216.078125 C 892.03125 216.078125 901.757812 220.109375 908.933594 227.28125 C 916.105469 234.453125 920.136719 244.183594 920.136719 254.328125 L 920.136719 690.75 C 920.136719 700.894531 916.105469 710.625 908.933594 717.796875 C 901.757812 724.96875 892.03125 729 881.886719 729 L 211.15625 729 C 201.011719 729 191.285156 724.96875 184.109375 717.796875 C 176.9375 710.625 172.90625 700.894531 172.90625 690.75 L 172.90625 254.328125 C 172.90625 244.183594 176.9375 234.453125 184.109375 227.28125 C 191.285156 220.109375 201.011719 216.078125 211.15625 216.078125 Z M 211.15625 216.078125 "/></clipPath><clipPath id="ec39783620"><path d="M 0.90625 0.078125 L 638 0.078125 L 638 513 L 0.90625 513 Z M 0.90625 0.078125 "/></clipPath><clipPath id="44d1bd3b27"><path d="M 39.15625 0.078125 L 709.886719 0.078125 C 720.03125 0.078125 729.757812 4.109375 736.933594 11.28125 C 744.105469 18.453125 748.136719 28.183594 748.136719 38.328125 L 748.136719 474.75 C 748.136719 484.894531 744.105469 494.625 736.933594 501.796875 C 729.757812 508.96875 720.03125 513 709.886719 513 L 39.15625 513 C 29.011719 513 19.285156 508.96875 12.109375 501.796875 C 4.9375 494.625 0.90625 484.894531 0.90625 474.75 L 0.90625 38.328125 C 0.90625 28.183594 4.9375 18.453125 12.109375 11.28125 C 19.285156 4.109375 29.011719 0.078125 39.15625 0.078125 Z M 39.15625 0.078125 "/></clipPath><clipPath id="1debfc114e"><rect x="0" width="638" y="0" height="513"/></clipPath></defs><g id="f8a9372056"><g clip-rule="nonzero" clip-path="url(#a57e6e3c4c)"><g transform="matrix(1,0,0,1,0,0.000000000000039746)"><g clip-path="url(#488b20b34b)"><g clip-rule="nonzero" clip-path="url(#b350da5a7a)"><rect x="0" width="810" height="810" y="0" style="fill:url(#a910693256);stroke:none;"/></g></g></g></g><g clip-rule="nonzero" clip-path="url(#9df05a4762)"><g clip-rule="nonzero" clip-path="url(#647dddbc8e)"><g transform="matrix(1,0,0,1,172,216)"><g clip-path="url(#1debfc114e)"><g clip-rule="nonzero" clip-path="url(#ec39783620)"><g clip-rule="nonzero" clip-path="url(#44d1bd3b27)"><path style=" stroke:none;fill-rule:nonzero;fill:#ffffff;fill-opacity:1;" d="M 0.90625 0.078125 L 748.25 0.078125 L 748.25 513 L 0.90625 513 Z M 0.90625 0.078125 "/></g></g></g></g></g></g><g style="fill:#ff9933;fill-opacity:1;"><g transform="translate(256.965576, 585.109853)"><path style="stroke:none" d="M 63.578125 5.5 C 53.367188 5.5 44.863281 1.835938 38.0625 -5.484375 C 31.257812 -12.816406 27.859375 -21.71875 27.859375 -32.1875 C 27.859375 -42.90625 31.257812 -51.863281 38.0625 -59.0625 C 44.863281 -66.257812 53.367188 -69.859375 63.578125 -69.859375 C 74.035156 -69.859375 82.664062 -66.257812 89.46875 -59.0625 C 96.269531 -51.863281 99.671875 -42.90625 99.671875 -32.1875 C 99.671875 -21.71875 96.269531 -12.816406 89.46875 -5.484375 C 82.664062 1.835938 74.035156 5.5 63.578125 5.5 Z M 63.578125 5.5 "/></g></g><g style="fill:#ff9933;fill-opacity:1;"><g transform="translate(399.422849, 585.109853)"><path style="stroke:none" d="M 15.703125 89.875 C 7.328125 89.875 0.195312 89.285156 -5.6875 88.109375 C -11.570312 86.929688 -16.738281 85.554688 -21.1875 83.984375 L -10.984375 41.203125 C -4.703125 43.296875 1.3125 44.34375 7.0625 44.34375 C 16.476562 44.34375 22.882812 41.203125 26.28125 34.921875 C 29.6875 28.648438 31.390625 19.363281 31.390625 7.0625 L 31.390625 -219.765625 L 89.078125 -219.765625 L 89.078125 5.5 C 89.078125 21.195312 86.785156 35.390625 82.203125 48.078125 C 77.628906 60.765625 70.046875 70.898438 59.453125 78.484375 C 48.859375 86.078125 34.273438 89.875 15.703125 89.875 Z M 60.4375 -255.078125 C 50.488281 -255.078125 42.242188 -258.085938 35.703125 -264.109375 C 29.171875 -270.128906 25.90625 -277.585938 25.90625 -286.484375 C 25.90625 -295.898438 29.171875 -303.484375 35.703125 -309.234375 C 42.242188 -314.992188 50.488281 -317.875 60.4375 -317.875 C 70.375 -317.875 78.613281 -314.992188 85.15625 -309.234375 C 91.695312 -303.484375 94.96875 -295.898438 94.96875 -286.484375 C 94.96875 -277.585938 91.695312 -270.128906 85.15625 -264.109375 C 78.613281 -258.085938 70.375 -255.078125 60.4375 -255.078125 Z M 60.4375 -255.078125 "/></g></g><g style="fill:#ff9933;fill-opacity:1;"><g transform="translate(519.118396, 585.109853)"><path style="stroke:none" d="M 124.40625 5.5 C 104 5.5 85.75 0.988281 69.65625 -8.03125 C 53.5625 -17.0625 40.804688 -30.210938 31.390625 -47.484375 C 21.972656 -64.753906 17.265625 -85.421875 17.265625 -109.484375 C 17.265625 -134.078125 22.492188 -154.941406 32.953125 -172.078125 C 43.421875 -189.210938 57.15625 -202.359375 74.15625 -211.515625 C 91.164062 -220.679688 109.613281 -225.265625 129.5 -225.265625 C 143.101562 -225.265625 155.140625 -222.90625 165.609375 -218.1875 C 176.078125 -213.476562 185.363281 -207.722656 193.46875 -200.921875 L 166 -163.640625 C 160.507812 -168.347656 155.082031 -171.945312 149.71875 -174.4375 C 144.351562 -176.925781 138.53125 -178.171875 132.25 -178.171875 C 115.507812 -178.171875 101.972656 -171.957031 91.640625 -159.53125 C 81.304688 -147.101562 76.140625 -130.421875 76.140625 -109.484375 C 76.140625 -88.816406 81.238281 -72.332031 91.4375 -60.03125 C 101.644531 -47.738281 114.726562 -41.59375 130.6875 -41.59375 C 138.53125 -41.59375 146.113281 -43.289062 153.4375 -46.6875 C 160.769531 -50.09375 167.441406 -54.285156 173.453125 -59.265625 L 196.21875 -21.1875 C 185.75 -12.03125 174.234375 -5.289062 161.671875 -0.96875 C 149.117188 3.34375 136.695312 5.5 124.40625 5.5 Z M 124.40625 5.5 "/></g></g></g></svg>