<svg xmlns="http://www.w3.org/2000/svg" xmlns:xlink="http://www.w3.org/1999/xlink" width="1080" zoomAndPan="magnify" viewBox="0 0 810 809.999993" height="1080" preserveAspectRatio="xMidYMid meet" version="1.2"><defs><clipPath id="b6370ba11b"><path d="M 75 0 L 735 0 C 776.421875 0 810 33.578125 810 75 L 810 735 C 810 776.421875 776.421875 810 735 810 L 75 810 C 33.578125 810 0 776.421875 0 735 L 0 75 C 0 33.578125 33.578125 0 75 0 Z M 75 0 "/></clipPath><clipPath id="398bdfff1b"><path d="M 75 0 L 735 0 C 776.421875 0 810 33.578125 810 75 L 810 735 C 810 776.421875 776.421875 810 735 810 L 75 810 C 33.578125 810 0 776.421875 0 735 L 0 75 C 0 33.578125 33.578125 0 75 0 Z M 75 0 "/></clipPath><linearGradient x1="0.000000485452" gradientTransform="matrix(3.164062,0,0,3.164062,0.0000035,0.00002)" y1="256" x2="256" gradientUnits="userSpaceOnUse" y2="0.000000485452" id="ce217e6483"><stop style="stop-color:#121521;stop-opacity:1;" offset="0"/><stop style="stop-color:#121521;stop-opacity:1;" offset="0.125"/><stop style="stop-color:#121521;stop-opacity:1;" offset="0.140625"/><stop style="stop-color:#121521;stop-opacity:1;" offset="0.148438"/><stop style="stop-color:#121622;stop-opacity:1;" offset="0.152344"/><stop style="stop-color:#131623;stop-opacity:1;" offset="0.15625"/><stop style="stop-color:#141724;stop-opacity:1;" offset="0.160156"/><stop style="stop-color:#141825;stop-opacity:1;" offset="0.164062"/><stop style="stop-color:#151926;stop-opacity:1;" offset="0.167969"/><stop style="stop-color:#151927;stop-opacity:1;" offset="0.171875"/><stop style="stop-color:#161a29;stop-opacity:1;" offset="0.175781"/><stop style="stop-color:#171b2a;stop-opacity:1;" offset="0.179687"/><stop style="stop-color:#171c2b;stop-opacity:1;" offset="0.183594"/><stop style="stop-color:#181d2c;stop-opacity:1;" offset="0.1875"/><stop style="stop-color:#181d2d;stop-opacity:1;" offset="0.191406"/><stop style="stop-color:#191e2e;stop-opacity:1;" offset="0.195312"/><stop style="stop-color:#191f30;stop-opacity:1;" offset="0.199219"/><stop style="stop-color:#1a2031;stop-opacity:1;" offset="0.203125"/><stop style="stop-color:#1b2032;stop-opacity:1;" offset="0.207031"/><stop style="stop-color:#1b2133;stop-opacity:1;" offset="0.210937"/><stop style="stop-color:#1c2234;stop-opacity:1;" offset="0.214844"/><stop style="stop-color:#1c2335;stop-opacity:1;" offset="0.21875"/><stop style="stop-color:#1d2437;stop-opacity:1;" offset="0.222656"/><stop style="stop-color:#1e2438;stop-opacity:1;" offset="0.226562"/><stop style="stop-color:#1e2539;stop-opacity:1;" offset="0.230469"/><stop style="stop-color:#1f263a;stop-opacity:1;" offset="0.234375"/><stop style="stop-color:#1f273b;stop-opacity:1;" offset="0.238281"/><stop style="stop-color:#20273c;stop-opacity:1;" offset="0.242187"/><stop style="stop-color:#21283d;stop-opacity:1;" offset="0.246094"/><stop style="stop-color:#21293f;stop-opacity:1;" offset="0.25"/><stop style="stop-color:#222a40;stop-opacity:1;" offset="0.253906"/><stop style="stop-color:#222b41;stop-opacity:1;" offset="0.257812"/><stop style="stop-color:#232b42;stop-opacity:1;" offset="0.261719"/><stop style="stop-color:#242c43;stop-opacity:1;" offset="0.265625"/><stop style="stop-color:#242d44;stop-opacity:1;" offset="0.269531"/><stop style="stop-color:#252e46;stop-opacity:1;" offset="0.273437"/><stop style="stop-color:#252e47;stop-opacity:1;" offset="0.277344"/><stop style="stop-color:#262f48;stop-opacity:1;" offset="0.28125"/><stop style="stop-color:#273049;stop-opacity:1;" offset="0.285156"/><stop style="stop-color:#27314a;stop-opacity:1;" offset="0.289062"/><stop style="stop-color:#28324b;stop-opacity:1;" offset="0.292969"/><stop style="stop-color:#28324c;stop-opacity:1;" offset="0.296875"/><stop style="stop-color:#29334e;stop-opacity:1;" offset="0.300781"/><stop style="stop-color:#2a344f;stop-opacity:1;" offset="0.304687"/><stop style="stop-color:#2a3550;stop-opacity:1;" offset="0.308594"/><stop style="stop-color:#2b3551;stop-opacity:1;" offset="0.3125"/><stop style="stop-color:#2b3652;stop-opacity:1;" offset="0.316406"/><stop style="stop-color:#2c3753;stop-opacity:1;" offset="0.320312"/><stop style="stop-color:#2c3855;stop-opacity:1;" offset="0.324219"/><stop style="stop-color:#2d3956;stop-opacity:1;" offset="0.328125"/><stop style="stop-color:#2e3957;stop-opacity:1;" offset="0.332031"/><stop style="stop-color:#2e3a58;stop-opacity:1;" offset="0.335937"/><stop style="stop-color:#2f3b59;stop-opacity:1;" offset="0.339844"/><stop style="stop-color:#2f3c5a;stop-opacity:1;" offset="0.34375"/><stop style="stop-color:#303d5c;stop-opacity:1;" offset="0.347656"/><stop style="stop-color:#313d5d;stop-opacity:1;" offset="0.351562"/><stop style="stop-color:#313e5e;stop-opacity:1;" offset="0.355469"/><stop style="stop-color:#323f5f;stop-opacity:1;" offset="0.359375"/><stop style="stop-color:#324060;stop-opacity:1;" offset="0.363281"/><stop style="stop-color:#334061;stop-opacity:1;" offset="0.367187"/><stop style="stop-color:#344162;stop-opacity:1;" offset="0.371094"/><stop style="stop-color:#344264;stop-opacity:1;" offset="0.375"/><stop style="stop-color:#354365;stop-opacity:1;" offset="0.378906"/><stop style="stop-color:#354466;stop-opacity:1;" offset="0.382812"/><stop style="stop-color:#364467;stop-opacity:1;" offset="0.386719"/><stop style="stop-color:#374568;stop-opacity:1;" offset="0.390625"/><stop style="stop-color:#374669;stop-opacity:1;" offset="0.394531"/><stop style="stop-color:#38476b;stop-opacity:1;" offset="0.398438"/><stop style="stop-color:#3a466a;stop-opacity:1;" offset="0.402344"/><stop style="stop-color:#3c4669;stop-opacity:1;" offset="0.40625"/><stop style="stop-color:#3e4568;stop-opacity:1;" offset="0.410156"/><stop style="stop-color:#414467;stop-opacity:1;" offset="0.414062"/><stop style="stop-color:#434366;stop-opacity:1;" offset="0.417969"/><stop style="stop-color:#464264;stop-opacity:1;" offset="0.421875"/><stop style="stop-color:#484163;stop-opacity:1;" offset="0.425781"/><stop style="stop-color:#4b4062;stop-opacity:1;" offset="0.429688"/><stop style="stop-color:#4d3f61;stop-opacity:1;" offset="0.433594"/><stop style="stop-color:#503e60;stop-opacity:1;" offset="0.4375"/><stop style="stop-color:#523d5e;stop-opacity:1;" offset="0.441406"/><stop style="stop-color:#553d5d;stop-opacity:1;" offset="0.445312"/><stop style="stop-color:#573c5c;stop-opacity:1;" offset="0.449219"/><stop style="stop-color:#593b5b;stop-opacity:1;" offset="0.453125"/><stop style="stop-color:#5c3a5a;stop-opacity:1;" offset="0.457031"/><stop style="stop-color:#5e3958;stop-opacity:1;" offset="0.460937"/><stop style="stop-color:#613857;stop-opacity:1;" offset="0.464844"/><stop style="stop-color:#633756;stop-opacity:1;" offset="0.46875"/><stop style="stop-color:#663655;stop-opacity:1;" offset="0.472656"/><stop style="stop-color:#683554;stop-opacity:1;" offset="0.476562"/><stop style="stop-color:#6b3452;stop-opacity:1;" offset="0.480469"/><stop style="stop-color:#6d3451;stop-opacity:1;" offset="0.484375"/><stop style="stop-color:#703350;stop-opacity:1;" offset="0.488281"/><stop style="stop-color:#72324f;stop-opacity:1;" offset="0.492187"/><stop style="stop-color:#75314e;stop-opacity:1;" offset="0.496094"/><stop style="stop-color:#77304c;stop-opacity:1;" offset="0.5"/><stop style="stop-color:#792f4b;stop-opacity:1;" offset="0.503906"/><stop style="stop-color:#7c2e4a;stop-opacity:1;" offset="0.507812"/><stop style="stop-color:#7e2d49;stop-opacity:1;" offset="0.511719"/><stop style="stop-color:#812c48;stop-opacity:1;" offset="0.515625"/><stop style="stop-color:#832b47;stop-opacity:1;" offset="0.519531"/><stop style="stop-color:#862b45;stop-opacity:1;" offset="0.523438"/><stop style="stop-color:#882a44;stop-opacity:1;" offset="0.527344"/><stop style="stop-color:#8b2943;stop-opacity:1;" offset="0.53125"/><stop style="stop-color:#8d2842;stop-opacity:1;" offset="0.535156"/><stop style="stop-color:#902741;stop-opacity:1;" offset="0.539062"/><stop style="stop-color:#92263f;stop-opacity:1;" offset="0.542969"/><stop style="stop-color:#95253e;stop-opacity:1;" offset="0.546875"/><stop style="stop-color:#97243d;stop-opacity:1;" offset="0.550781"/><stop style="stop-color:#99233c;stop-opacity:1;" offset="0.554688"/><stop style="stop-color:#9c233b;stop-opacity:1;" offset="0.558594"/><stop style="stop-color:#9e2239;stop-opacity:1;" offset="0.5625"/><stop style="stop-color:#a12138;stop-opacity:1;" offset="0.566406"/><stop style="stop-color:#a32037;stop-opacity:1;" offset="0.570312"/><stop style="stop-color:#a61f36;stop-opacity:1;" offset="0.574219"/><stop style="stop-color:#a81e35;stop-opacity:1;" offset="0.578125"/><stop style="stop-color:#ab1d33;stop-opacity:1;" offset="0.582031"/><stop style="stop-color:#ad1c32;stop-opacity:1;" offset="0.585938"/><stop style="stop-color:#b01b31;stop-opacity:1;" offset="0.589844"/><stop style="stop-color:#b21a30;stop-opacity:1;" offset="0.59375"/><stop style="stop-color:#b41a2f;stop-opacity:1;" offset="0.597656"/><stop style="stop-color:#b61a2f;stop-opacity:1;" offset="0.601562"/><stop style="stop-color:#b81d31;stop-opacity:1;" offset="0.605469"/><stop style="stop-color:#b91f33;stop-opacity:1;" offset="0.609375"/><stop style="stop-color:#ba2235;stop-opacity:1;" offset="0.613281"/><stop style="stop-color:#bb2537;stop-opacity:1;" offset="0.617188"/><stop style="stop-color:#bc2739;stop-opacity:1;" offset="0.621094"/><stop style="stop-color:#bd2a3b;stop-opacity:1;" offset="0.625"/><stop style="stop-color:#be2c3d;stop-opacity:1;" offset="0.628906"/><stop style="stop-color:#c02f3f;stop-opacity:1;" offset="0.632812"/><stop style="stop-color:#c13241;stop-opacity:1;" offset="0.636719"/><stop style="stop-color:#c23442;stop-opacity:1;" offset="0.640625"/><stop style="stop-color:#c33744;stop-opacity:1;" offset="0.644531"/><stop style="stop-color:#c43a46;stop-opacity:1;" offset="0.648437"/><stop style="stop-color:#c53c48;stop-opacity:1;" offset="0.652344"/><stop style="stop-color:#c63f4a;stop-opacity:1;" offset="0.65625"/><stop style="stop-color:#c8414c;stop-opacity:1;" offset="0.660156"/><stop style="stop-color:#c9444e;stop-opacity:1;" offset="0.664062"/><stop style="stop-color:#ca4750;stop-opacity:1;" offset="0.667969"/><stop style="stop-color:#cb4952;stop-opacity:1;" offset="0.671875"/><stop style="stop-color:#cc4c54;stop-opacity:1;" offset="0.675781"/><stop style="stop-color:#cd4f56;stop-opacity:1;" offset="0.679687"/><stop style="stop-color:#ce5158;stop-opacity:1;" offset="0.683594"/><stop style="stop-color:#d0545a;stop-opacity:1;" offset="0.6875"/><stop style="stop-color:#d1565c;stop-opacity:1;" offset="0.691406"/><stop style="stop-color:#d2595e;stop-opacity:1;" offset="0.695312"/><stop style="stop-color:#d35c60;stop-opacity:1;" offset="0.699219"/><stop style="stop-color:#d45e62;stop-opacity:1;" offset="0.703125"/><stop style="stop-color:#d56164;stop-opacity:1;" offset="0.707031"/><stop style="stop-color:#d66466;stop-opacity:1;" offset="0.710937"/><stop style="stop-color:#d86668;stop-opacity:1;" offset="0.714844"/><stop style="stop-color:#d9696a;stop-opacity:1;" offset="0.71875"/><stop style="stop-color:#da6b6c;stop-opacity:1;" offset="0.722656"/><stop style="stop-color:#db6e6e;stop-opacity:1;" offset="0.726562"/><stop style="stop-color:#dc7170;stop-opacity:1;" offset="0.730469"/><stop style="stop-color:#dd7372;stop-opacity:1;" offset="0.734375"/><stop style="stop-color:#de7674;stop-opacity:1;" offset="0.738281"/><stop style="stop-color:#e07976;stop-opacity:1;" offset="0.742187"/><stop style="stop-color:#e17b78;stop-opacity:1;" offset="0.746094"/><stop style="stop-color:#e27e7a;stop-opacity:1;" offset="0.75"/><stop style="stop-color:#e3807c;stop-opacity:1;" offset="0.753906"/><stop style="stop-color:#e4837e;stop-opacity:1;" offset="0.757813"/><stop style="stop-color:#e58680;stop-opacity:1;" offset="0.761719"/><stop style="stop-color:#e68881;stop-opacity:1;" offset="0.765625"/><stop style="stop-color:#e78b83;stop-opacity:1;" offset="0.769531"/><stop style="stop-color:#e98e85;stop-opacity:1;" offset="0.773438"/><stop style="stop-color:#ea9087;stop-opacity:1;" offset="0.777344"/><stop style="stop-color:#eb9389;stop-opacity:1;" offset="0.78125"/><stop style="stop-color:#ec958b;stop-opacity:1;" offset="0.785156"/><stop style="stop-color:#ed988d;stop-opacity:1;" offset="0.789063"/><stop style="stop-color:#ee9b8f;stop-opacity:1;" offset="0.792969"/><stop style="stop-color:#ef9d91;stop-opacity:1;" offset="0.796875"/><stop style="stop-color:#f1a093;stop-opacity:1;" offset="0.800781"/><stop style="stop-color:#f2a395;stop-opacity:1;" offset="0.804688"/><stop style="stop-color:#f3a597;stop-opacity:1;" offset="0.808594"/><stop style="stop-color:#f4a899;stop-opacity:1;" offset="0.8125"/><stop style="stop-color:#f5aa9b;stop-opacity:1;" offset="0.816406"/><stop style="stop-color:#f6ad9d;stop-opacity:1;" offset="0.820313"/><stop style="stop-color:#f7b09f;stop-opacity:1;" offset="0.824219"/><stop style="stop-color:#f9b2a1;stop-opacity:1;" offset="0.828125"/><stop style="stop-color:#fab5a3;stop-opacity:1;" offset="0.832031"/><stop style="stop-color:#fbb8a5;stop-opacity:1;" offset="0.835938"/><stop style="stop-color:#fcbaa7;stop-opacity:1;" offset="0.839844"/><stop style="stop-color:#fdbda9;stop-opacity:1;" offset="0.84375"/><stop style="stop-color:#febfaa;stop-opacity:1;" offset="0.847656"/><stop style="stop-color:#ffc1ac;stop-opacity:1;" offset="0.851563"/><stop style="stop-color:#ffc1ac;stop-opacity:1;" offset="0.859375"/><stop style="stop-color:#ffc1ac;stop-opacity:1;" offset="0.875"/><stop style="stop-color:#ffc1ac;stop-opacity:1;" offset="1"/></linearGradient><clipPath id="2752698ac0"><rect x="0" width="810" y="0" height="810"/></clipPath><clipPath id="9576b27021"><path d="M 172.90625 216.078125 L 810 216.078125 L 810 729 L 172.90625 729 Z M 172.90625 216.078125 "/></clipPath><clipPath id="0f1f902fe4"><path d="M 211.15625 216.078125 L 881.886719 216.078125 C 892.03125 216.078125 901.757812 220.109375 908.933594 227.28125 C 916.105469 234.453125 920.136719 244.183594 920.136719 254.328125 L 920.136719 690.75 C 920.136719 700.894531 916.105469 710.625 908.933594 717.796875 C 901.757812 724.96875 892.03125 729 881.886719 729 L 211.15625 729 C 201.011719 729 191.285156 724.96875 184.109375 717.796875 C 176.9375 710.625 172.90625 700.894531 172.90625 690.75 L 172.90625 254.328125 C 172.90625 244.183594 176.9375 234.453125 184.109375 227.28125 C 191.285156 220.109375 201.011719 216.078125 211.15625 216.078125 Z M 211.15625 216.078125 "/></clipPath><clipPath id="2cb2bea2ed"><path d="M 0.90625 0.078125 L 638 0.078125 L 638 513 L 0.90625 513 Z M 0.90625 0.078125 "/></clipPath><clipPath id="eb4414d28f"><path d="M 39.15625 0.078125 L 709.886719 0.078125 C 720.03125 0.078125 729.757812 4.109375 736.933594 11.28125 C 744.105469 18.453125 748.136719 28.183594 748.136719 38.328125 L 748.136719 474.75 C 748.136719 484.894531 744.105469 494.625 736.933594 501.796875 C 729.757812 508.96875 720.03125 513 709.886719 513 L 39.15625 513 C 29.011719 513 19.285156 508.96875 12.109375 501.796875 C 4.9375 494.625 0.90625 484.894531 0.90625 474.75 L 0.90625 38.328125 C 0.90625 28.183594 4.9375 18.453125 12.109375 11.28125 C 19.285156 4.109375 29.011719 0.078125 39.15625 0.078125 Z M 39.15625 0.078125 "/></clipPath><clipPath id="c824f679bc"><rect x="0" width="638" y="0" height="513"/></clipPath></defs><g id="3ccbae3ab7"><g clip-rule="nonzero" clip-path="url(#b6370ba11b)"><g transform="matrix(1,0,0,1,0,0.000000000000039746)"><g clip-path="url(#2752698ac0)"><g clip-rule="nonzero" clip-path="url(#398bdfff1b)"><rect x="0" width="810" height="810" y="0" style="fill:url(#ce217e6483);stroke:none;"/></g></g></g></g><g clip-rule="nonzero" clip-path="url(#9576b27021)"><g clip-rule="nonzero" clip-path="url(#0f1f902fe4)"><g transform="matrix(1,0,0,1,172,216)"><g clip-path="url(#c824f679bc)"><g clip-rule="nonzero" clip-path="url(#2cb2bea2ed)"><g clip-rule="nonzero" clip-path="url(#eb4414d28f)"><path style=" stroke:none;fill-rule:nonzero;fill:#ffffff;fill-opacity:1;" d="M 0.90625 0.078125 L 748.25 0.078125 L 748.25 513 L 0.90625 513 Z M 0.90625 0.078125 "/></g></g></g></g></g></g><g style="fill:#737373;fill-opacity:1;"><g transform="translate(186.547611, 575.757735)"><path style="stroke:none" d="M 51.109375 4.421875 C 42.898438 4.421875 36.0625 1.476562 30.59375 -4.40625 C 25.125 -10.300781 22.390625 -17.457031 22.390625 -25.875 C 22.390625 -34.488281 25.125 -41.6875 30.59375 -47.46875 C 36.0625 -53.257812 42.898438 -56.15625 51.109375 -56.15625 C 59.515625 -56.15625 66.453125 -53.257812 71.921875 -47.46875 C 77.390625 -41.6875 80.125 -34.488281 80.125 -25.875 C 80.125 -17.457031 77.390625 -10.300781 71.921875 -4.40625 C 66.453125 1.476562 59.515625 4.421875 51.109375 4.421875 Z M 51.109375 4.421875 "/></g></g><g style="fill:#737373;fill-opacity:1;"><g transform="translate(289.073519, 575.757735)"><path style="stroke:none" d="M 24.921875 0 L 24.921875 -176.65625 L 62.78125 -176.65625 L 65.9375 -153 L 67.1875 -153 C 74.550781 -160.78125 82.546875 -167.40625 91.171875 -172.875 C 99.796875 -178.34375 109.890625 -181.078125 121.453125 -181.078125 C 134.078125 -181.078125 144.28125 -178.394531 152.0625 -173.03125 C 159.84375 -167.664062 165.832031 -160.039062 170.03125 -150.15625 C 178.03125 -158.78125 186.5 -166.085938 195.4375 -172.078125 C 204.375 -178.078125 214.625 -181.078125 226.1875 -181.078125 C 244.90625 -181.078125 258.734375 -174.816406 267.671875 -162.296875 C 276.609375 -149.785156 281.078125 -132.382812 281.078125 -110.09375 L 281.078125 0 L 234.703125 0 L 234.703125 -104.421875 C 234.703125 -118.085938 232.703125 -127.65625 228.703125 -133.125 C 224.710938 -138.59375 218.515625 -141.328125 210.109375 -141.328125 C 200.003906 -141.328125 188.644531 -134.703125 176.03125 -121.453125 L 176.03125 0 L 129.65625 0 L 129.65625 -104.421875 C 129.65625 -118.085938 127.65625 -127.65625 123.65625 -133.125 C 119.664062 -138.59375 113.460938 -141.328125 105.046875 -141.328125 C 94.953125 -141.328125 83.597656 -134.703125 70.984375 -121.453125 L 70.984375 0 Z M 24.921875 0 "/></g></g><g style="fill:#737373;fill-opacity:1;"><g transform="translate(593.181202, 575.757735)"><path style="stroke:none" d="M 87.0625 4.421875 C 72.550781 4.421875 59.878906 0.738281 49.046875 -6.625 C 38.222656 -13.988281 29.8125 -24.609375 23.8125 -38.484375 C 17.820312 -52.367188 14.828125 -68.878906 14.828125 -88.015625 C 14.828125 -107.359375 18.347656 -123.972656 25.390625 -137.859375 C 32.441406 -151.742188 41.644531 -162.414062 53 -169.875 C 64.351562 -177.34375 76.34375 -181.078125 88.96875 -181.078125 C 98.851562 -181.078125 107.210938 -179.34375 114.046875 -175.875 C 120.878906 -172.40625 127.453125 -167.722656 133.765625 -161.828125 L 131.859375 -189.59375 L 131.859375 -251.75 L 178.234375 -251.75 L 178.234375 0 L 140.703125 0 L 136.90625 -18.296875 L 135.96875 -18.296875 C 129.445312 -11.984375 121.976562 -6.617188 113.5625 -2.203125 C 105.15625 2.210938 96.320312 4.421875 87.0625 4.421875 Z M 99.0625 -33.75 C 105.15625 -33.75 110.882812 -35.164062 116.25 -38 C 121.613281 -40.84375 126.816406 -45.523438 131.859375 -52.046875 L 131.859375 -129.65625 C 126.609375 -134.488281 121.195312 -137.90625 115.625 -139.90625 C 110.050781 -141.90625 104.53125 -142.90625 99.0625 -142.90625 C 89.175781 -142.90625 80.601562 -138.273438 73.34375 -129.015625 C 66.09375 -119.765625 62.46875 -106.304688 62.46875 -88.640625 C 62.46875 -70.347656 65.671875 -56.625 72.078125 -47.46875 C 78.492188 -38.320312 87.488281 -33.75 99.0625 -33.75 Z M 99.0625 -33.75 "/></g></g></g></svg>